<svg width="15" height="18" viewBox="0 0 15 18" fill="none" xmlns="http://www.w3.org/2000/svg">
<g clip-path="url(#clip0_12_43)">
<path d="M6.37835 2.23994L7.12165 1.49664C7.43638 1.18191 7.94531 1.18191 8.2567 1.49664L14.7656 8.00222C15.0804 8.31695 15.0804 8.82588 14.7656 9.13727L8.2567 15.6462C7.94196 15.9609 7.43304 15.9609 7.12165 15.6462L6.37835 14.9029C6.06027 14.5848 6.06696 14.0658 6.39174 13.7545L10.4263 9.9107H0.803571C0.358259 9.9107 0 9.55245 0 9.10713V8.0357C0 7.59039 0.358259 7.23213 0.803571 7.23213H10.4263L6.39174 3.38838C6.06362 3.077 6.05692 2.55802 6.37835 2.23994Z" fill="#E5E5E5"/>
</g>
<defs>
<clipPath id="clip0_12_43">
<rect width="15" height="17.1429" fill="white"/>
</clipPath>
</defs>
</svg>
