<svg width="15" height="16" viewBox="0 0 15 16" fill="none" xmlns="http://www.w3.org/2000/svg">
<path d="M1.00472 8.84644L0.242187 8.0839C-0.0806894 7.76103 -0.0806894 7.23893 0.242187 6.91949L6.91611 0.242135C7.23898 -0.0807409 7.76108 -0.0807409 8.08052 0.242135L14.7579 6.91949C15.0807 7.24236 15.0807 7.76446 14.7579 8.0839L13.9953 8.84644C13.669 9.17275 13.1366 9.16588 12.8172 8.8327L8.87397 4.6937V14.5655C8.87397 15.0223 8.50644 15.3898 8.04961 15.3898H6.95045C6.49362 15.3898 6.12609 15.0223 6.12609 14.5655V4.6937L2.18288 8.8327C1.86344 9.16932 1.33103 9.17618 1.00472 8.84644Z" fill="#5B5B5B"/>
</svg>
